<svg xmlns="http://www.w3.org/2000/svg" width="39.617" height="43.003"><g fill="none" stroke="#000" data-name="Group 4413"><g data-name="Group 52"><path d="M1.817 8.376S-.007 7.37.697 4.201a4.561 4.561 0 0 1 3.111-3.7h26.767s2.465-.117 3.228 3.7 5.312 31.345 5.312 31.345.072 6.826-5.153 6.944c-4.571.1-5.377-3.462-5.12-5.183l1.732-13.148 3.379-19.047" data-name="Path 392"/><path d="M30.208.564s-4.51.374-4.5 4.665a2.94 2.94 0 0 0 2.624 3.114s2.058.262 1.88-2.351h-2.45" data-name="Path 393"/><path d="M28.668 8.34H1.752" data-name="Path 394"/><path d="M6.214 8.438 1.55 34.649S-.437 42.37 6.02 42.46s28.622.009 28.622.009" data-name="Path 395"/></g><g data-name="Group 467"><path d="M13.5 36.081s-.146-1.754 2-4.219c1.9-2.226 3.562-6.219 2.482-9.284a13.275 13.275 0 0 0-5.482-6.825S9 21.446 16.383 27.169c0 0 1.839-3.445-2.861-7.737" data-name="Path 433"/><path d="M17.875 19.343s2.278-2.16 3.708.613l3.241.73-3.679.409a2.165 2.165 0 0 1-1.453.442.84.84 0 0 1-.7-.943.663.663 0 0 1 1.289-.187" data-name="Path 434"/><path d="M20.77 22.309s.943 3.5-.133 5.6-3.92 2.445-3.92 2.445" data-name="Path 435"/></g></g></svg>