<svg xmlns="http://www.w3.org/2000/svg" width="174" height="174" class="mx-auto h-16 w-16" style="transform:none;transform-origin:50% 50%;cursor:cell" viewBox="0 0 1740 1740"><g style="transform:none"><path d="M1734.314 879.29c0 474.938-385.013 859.95-859.95 859.95-474.937 0-859.95-385.012-859.95-859.95 0-474.937 385.013-859.95 859.95-859.95 474.937 0 859.95 385.013 859.95 859.95Zm-21.811.08c0-463.5-375.74-839.24-839.24-839.24-463.499 0-839.239 375.74-839.239 839.24 0 463.498 375.74 839.238 839.24 839.238 463.499 0 839.239-375.74 839.239-839.239ZM1105 1685"/><path d="M758 1180c-21-16-44-20-129-22l-104-3v-92c0-118 19-130 23-15l3 82h80c86 0 87-2 46-48-12-12-23-41-26-65-5-38-9-42-34-42-34-1-128-88-111-105 7-7 23 3 49 30 21 22 42 40 45 40 11 0 140-125 140-135 0-5-54-64-120-130-66-67-120-127-120-133 0-30 34-2 153 123 99 104 127 139 122 154-9 30 30 51 92 51 52 0 171 43 186 67 4 6-4 20-18 33-21 19-30 21-71 15l-47-7 68 76 68 76h187V590h-239l-3 38-3 37-83 3c-94 3-112-5-112-49v-29h-85c-69 0-85-3-85-15 0-13 39-15 318-13l317 3v590l-101 3c-86 2-104 6-119 22-16 18-31 20-140 20-106 0-126-3-147-20zm47-27c13-17 14-17 32 0 24 21 43 22 43 2 0-8 4-15 9-15s14 7 21 15 16 15 21 15 9-7 9-15 6-15 14-15c7 0 19 7 26 15 14 17 36 20 45 5 3-6-27-46-67-91-102-112-99-136 15-114 51 10 47-6-8-33-31-15-64-22-104-22-43 0-65-5-84-20-14-11-29-20-34-20s-27 19-50 43c-38 38-41 44-27 61 8 11 14 32 14 46 0 25 91 160 107 160 3 0 12-8 18-17zm170-538c0-18-8-20-67-23-67-3-68-3-68 23s1 26 68 23c59-3 67-5 67-23z"/></g></svg>