<svg xmlns="http://www.w3.org/2000/svg" width="35.19" height="57.983"><g fill="none" stroke="#000" stroke-width="2" data-name="Group 3476" transform="translate(1 1.13)"><circle cx="16.595" cy="16.595" r="16.595" data-name="Ellipse 70" transform="translate(0 22.663)"/><path d="M16.595 22.663v-6.994S18.095 1.83 33.043.001c0 0-.08 16.861-15.907 17.577" data-name="Path 696"/><path d="M16.595 14.714S14.989 7.238 5.127 6.442c0 0-.685 10.18 11.468 11.055" data-name="Path 697"/><path d="M26.094 26.038s-8.137 2.134-7.219 7.579 6.792 8.137 7.954 11.869a12.392 12.392 0 0 1 .673 5.873" data-name="Path 698"/><path d="M28.908 38.699a10.936 10.936 0 0 1-2.019 6.787" data-name="Path 699"/><path d="M1.622 33.066s8.075-1.774 8.565 3.12-4.527 10.4-6.853 12.3" data-name="Path 700"/></g></svg>