<svg xmlns="http://www.w3.org/2000/svg" width="48.199" height="41.757"><g fill="none" stroke="#000" stroke-width="2" data-name="Group 3477"><path d="M7.9 3.158h39.3v35.024H33.924" data-name="Path 701"/><path d="M15.496 38.182H2.35V26.719" data-name="Path 702"/><path d="m.713 21.352 6.1 5.731 10.189-9.825L.718.701" data-name="Path 703"/><path d="M15.486 18.815s2.815 4.058 6.542 3.6 3.768-.539 4.8 0 7.04 3.271 7.04 3.271-1.739 3.188-4.6 2.029a28.271 28.271 0 0 1-3.437-1.532s-2.36.29-.7 2.112 8.737 9.358 8.737 9.358.828 2.857-1.739 3.023-13.582 0-13.582 0-.994.124-2.236-1.573l-5.383-6.667a4.8 4.8 0 0 1-.539-3.437c.331-2.277-2.4-2.815-2.4-2.815" data-name="Path 704"/><path d="m27.877 37.869 2.526 2.9" data-name="Path 705"/><path d="m23.917 37.869 2.526 2.9" data-name="Path 706"/><path d="m19.463 37.869 2.526 2.9" data-name="Path 707"/><path d="M20.185 3.158v4.805h10.518V3.158" data-name="Path 708"/></g></svg>