<svg xmlns="http://www.w3.org/2000/svg" width="51.067" height="43.01"><g fill="none" stroke="#000" data-name="Group 4414"><g data-name="Group 57"><path d="M29.853 13.415h5.914s2.517-.125 1.258 2.769-7.172 20.007-7.172 20.007a2.959 2.959 0 0 1-3.047 1.759c-2.474-.017-24.875 0-24.875 0s-2.1.059-1.186-2.059S8.599 14.96 8.599 14.96a2.4 2.4 0 0 1 2.406-1.525c1.949-.017 2.067 0 2.067 0" data-name="Path 396"/><path d="M14.868 13.414H27.94" data-name="Path 397"/><path d="M18.946 13.415s-.337-2.95-2.845-2.916a2.945 2.945 0 0 0-3.135 2.916 2.516 2.516 0 0 0 2.593 3.031" data-name="Path 398"/><path d="M33.791 13.415s-.337-2.95-2.845-2.916a2.945 2.945 0 0 0-3.135 2.916 2.516 2.516 0 0 0 2.593 3.031" data-name="Path 399"/><path d="M6.709 19.869h28.802" data-name="Line 1"/><path d="M9.936 21.887h3.389s1.043-.021.632 1.042-1.424 3.55-1.424 3.55-.17.651-1.153.692-3.349 0-3.349 0-.882-.1-.451-1.193l1.313-3.309a.923.923 0 0 1 1.043-.782Z" data-name="Path 400"/><path d="M6.834 30.306h3.389s1.043-.021.632 1.042-1.424 3.55-1.424 3.55-.17.651-1.153.692-3.349 0-3.349 0-.882-.1-.451-1.193l1.313-3.309a.923.923 0 0 1 1.043-.782Z" data-name="Path 405"/><path d="M18.134 21.887h3.389s1.043-.021.632 1.042-1.424 3.55-1.424 3.55-.17.651-1.153.692-3.349 0-3.349 0-.882-.1-.451-1.193l1.313-3.309a.923.923 0 0 1 1.043-.782Z" data-name="Path 401"/><path d="M15.032 30.306h3.389s1.043-.021.632 1.042-1.424 3.55-1.424 3.55-.17.651-1.153.692-3.349 0-3.349 0-.882-.1-.451-1.193l1.313-3.309a.923.923 0 0 1 1.043-.782Z" data-name="Path 404"/><path d="M26.11 21.887h3.389s1.043-.021.632 1.042-1.424 3.55-1.424 3.55-.17.651-1.153.692-3.349 0-3.349 0-.882-.1-.451-1.193l1.313-3.309a.923.923 0 0 1 1.043-.782Z" data-name="Path 402"/><path d="M23.008 30.306h3.389s1.043-.021.632 1.042-1.424 3.55-1.424 3.55-.17.651-1.153.692-3.349 0-3.349 0-.882-.1-.451-1.193l1.313-3.309a.923.923 0 0 1 1.043-.782Z" data-name="Path 403"/><path d="M37.378 14.827v24.868s.534 2.406-1.782 2.68-24.682 0-24.682 0a1.775 1.775 0 0 1-1.9-1.862" data-name="Path 406"/></g><path d="m23.375 11.736 1.5-8.63S25.563.493 27.402.527s20.392 0 20.392 0 2.6-.236 2.768 3.2-2.475 2.939-2.475 2.939H28.391a2.035 2.035 0 0 1-.877-1.908h1.771" data-name="Path 407"/><path d="M27.462.497s3.851.448 3.868 3.078a3.1 3.1 0 0 1-2.475 3.094" data-name="Path 408"/><path d="m24.723 4.701 1.336 6.973" data-name="Path 409"/><path d="m46.055 6.669 3.588 19.895s1.046 3.051-.261 4.852-4.038 1.626-4.038 1.626h-6.3" data-name="Path 410"/></g></svg>