<svg xmlns="http://www.w3.org/2000/svg" width="41.582" height="43"><g fill="none" stroke="#000" data-name="Group 4415"><path d="M.5 9.01h40.582V42.5H.5z" data-name="Rectangle 596"/><path d="M.793 9.229 6.446.5h28.226l6.242 8.693" data-name="Path 1013"/><path d="m19.512.5-2.467 8.648v7l3.537-2.557 3.507 2.557v-7L23.079.5" data-name="Path 1014"/><g data-name="Group 4411"><path d="M16.497 36.972s-.132-1.586 1.812-3.814c1.721-2.013 3.22-5.622 2.243-8.393a12 12 0 0 0-4.956-6.17s-3.167 5.147 3.511 10.321c0 0 1.663-3.114-2.587-6.995" data-name="Path 433"/><path d="M20.453 21.841s2.059-1.953 3.352.554l2.93.66-3.326.369a1.96 1.96 0 0 1-1.313.4.76.76 0 0 1-.637-.853.6.6 0 0 1 1.165-.169" data-name="Path 434"/><path d="M23.071 24.522s.853 3.163-.12 5.061-3.544 2.21-3.544 2.21" data-name="Path 435"/></g></g></svg>