<svg xmlns="http://www.w3.org/2000/svg" class="mx-auto h-16 w-16" viewBox="0 0 361.54 361.54"><defs><style>.cls-122{fill:#e1eaf4}</style></defs><g id="Layer_2" data-name="Layer 2"><g id="Layer_1-2" data-name="Layer 1"><g id="Layer_2-2" data-name="Layer 2"><path id="Layer_1-2-2" d="M180.78 5A174.88 174.88 0 1 1 56.49 56.48 175.76 175.76 0 0 1 180.78 5m0-5C80.94 0 0 80.92 0 180.76s80.92 180.77 180.76 180.78 180.77-80.92 180.78-180.76A180.78 180.78 0 0 0 180.78 0Z" data-name="Layer 1-2"/></g><g id="Layer_2-3" data-name="Layer 2"><g id="Layer_1-2-3" data-name="Layer 1-2"><path d="M180.5 79.19c12.88 18 23.55 36.81 25.06 59.46a51.86 51.86 0 0 1-.75 11.4c-.6 3.7-1.81 7.3-2.88 11.46 17.35-8.93 35.4-13 55.07-11.48-5.27 14.48-12.19 27.51-22.57 38.54-6.65 7.07-14.52 12.14-24.1 14.24-3.11.68-6.29 1-9.87 1.59 4.43 3.45 7.28 7.62 7.16 13.35a14.84 14.84 0 0 1-7.17 12.7c2.3 3.77 5.17 7.19 6.59 11.1a14.82 14.82 0 0 1-1.74 12.84c-4.32 7.12-11.25 9.39-22.09 6.89v21.07h-4.64c0-7.4.1-14.61 0-21.85 0-1.7-1-3.38-1.5-5.07-1.35-4.23-2.69-8.46-4.1-12.93-5.54 2.39-11.79 2.15-17-3s-5.72-11.42-2.72-18.17c-15-2.22-25.53-10.66-33.6-22.76a122.2 122.2 0 0 1-15.1-30.18c6.17.58 11.88.86 17.55 1.73q14.39 2.22 28.66 5.06c12.55 2.46 20.49 10.56 25.52 21.92a19.83 19.83 0 0 0 2.88 5c0-5.64.07-11.28-.08-16.92 0-.67-1.09-1.48-1.85-2-16.6-10.77-22.21-26.37-20.45-45.47 2-20.9 9.87-39.48 21.69-56.52a11.27 11.27 0 0 1 .89-1.17 7.94 7.94 0 0 1 1.14-.83Zm-1.4 9.57a24.49 24.49 0 0 0-1.81 2.47c-9.13 15.67-15.46 32.38-16.27 50.67-.63 14 3.7 26.19 15.2 35.06a26.54 26.54 0 0 0 2.88 1.66Zm4.9 3.44v85.42c11.45-10.4 17.35-22.66 17-37.76-.51-17.38-8-32.2-17-47.66Zm-7.87 120.92.95-.57c-1.52-4.24-2.87-8.53-4.58-12.7-4.4-10.85-11.82-18.25-23.69-20.54-3.49-.66-6.91-1.75-10.41-2.32-6.58-1.06-13.2-1.87-19.74-2.8l-.29.94Zm69.3-58-.44-.86c-16.17 1-31.62 4.81-45.06 14.27A30.87 30.87 0 0 0 186.16 194Zm-56.29 42.51a37.46 37.46 0 0 0 22.21.26c12.82-3.71 21.29-12.8 28.37-23.45 3.14-4.67 5.73-9.71 8.57-14.58l-.79-.54ZM114 177.9a85.7 85.7 0 0 0 14.73 24.91 40.11 40.11 0 0 0 19.48 12.74 23.15 23.15 0 0 0 9.39.92c3.32-.49 6.46-2.25 9.79-3.5Zm76.87 55.68a12.13 12.13 0 0 0-12.37 11.92v.13a12.54 12.54 0 0 0 12.41 12.47A12.34 12.34 0 0 0 203 245.76a12 12 0 0 0-11.68-12.23h-.47Zm2-5.69a10.07 10.07 0 0 0 10.19-10 2.54 2.54 0 0 0 0-.39 10.41 10.41 0 0 0-10.28-10.41 10.62 10.62 0 0 0-10.48 10.68 10.33 10.33 0 0 0 10.57 10Zm-26.5 11.29A10.48 10.48 0 0 0 176.85 229a10.78 10.78 0 0 0-10.61-10.67A10.51 10.51 0 0 0 156 228.82a10.19 10.19 0 0 0 10.07 10.31h.25Z"/><path d="M179.1 88.76v89.86a26.54 26.54 0 0 1-2.88-1.66c-11.53-8.87-15.83-21.05-15.2-35.06.81-18.29 7.14-35 16.32-50.72a20.72 20.72 0 0 1 1.76-2.42ZM184 92.2c9 15.46 16.54 30.28 17 47.66.38 15.1-5.52 27.36-17 37.76ZM176.11 213.12l-57.85-38 .29-.94c6.6.93 13.22 1.74 19.74 2.8 3.5.57 6.92 1.66 10.41 2.32 11.93 2.29 19.35 9.69 23.7 20.54 1.71 4.17 3.06 8.46 4.58 12.7ZM245.38 155.18 186.15 194a30.87 30.87 0 0 1 13.72-25.42c13.44-9.46 28.88-13.24 45.06-14.27ZM189.09 197.64l58.36-38.25.79.54c-2.84 4.87-5.43 9.87-8.57 14.58-7.09 10.6-15.57 19.75-28.37 23.45a37.47 37.47 0 0 1-22.21-.32ZM114 177.9l53.36 35.1c-3.33 1.24-6.47 3-9.79 3.5a23.15 23.15 0 0 1-9.39-.92 40.11 40.11 0 0 1-19.48-12.74A85.7 85.7 0 0 1 114 177.9ZM190.84 233.53A12 12 0 0 1 203 245.27a2.67 2.67 0 0 1 0 .4 12.35 12.35 0 0 1-12.09 12.43 12.53 12.53 0 0 1-12.42-12.49 12.11 12.11 0 0 1 12.17-12.08ZM192.8 227.84a10.33 10.33 0 0 1-10.52-10.08 10.63 10.63 0 0 1 10.48-10.68A10.41 10.41 0 0 1 203 217.49a10.08 10.08 0 0 1-9.8 10.35ZM166.3 239.13A10.18 10.18 0 0 1 156 229v-.22a10.49 10.49 0 0 1 10.25-10.49 10.77 10.77 0 0 1 10.6 10.71 10.48 10.48 0 0 1-10.55 10.13Z" class="cls-122"/></g></g></g></g></svg>