<svg xmlns="http://www.w3.org/2000/svg" class="mx-auto h-16 w-16" viewBox="0 0 361.54 361.54"><defs><style>.cls-1{fill:#010101}</style></defs><g id="Layer_2" data-name="Layer 2"><g id="Layer_1-2" data-name="Layer 1"><g id="Layer_2-2" data-name="Layer 2"><path id="Layer_1-2-2" d="M180.78 5A174.88 174.88 0 1 1 56.49 56.48 175.76 175.76 0 0 1 180.78 5m0-5C80.94 0 0 80.92 0 180.76s80.92 180.77 180.76 180.78 180.77-80.92 180.78-180.76A180.78 180.78 0 0 0 180.78 0Z" data-name="Layer 1-2"/></g><path d="M287.82 196.52a38.16 38.16 0 0 0-9.62-26 6 6 0 0 1-1.53-4.31c.07-8-.12-16 .11-24 .08-3.07-.48-4.12-3.9-4.07-15.26.23-30.53.06-45.8.15-2.16 0-3-.43-3-2.79a77.06 77.06 0 0 0-4.69-25.27c-.85-2.26-.09-3 1.92-3.6a46.33 46.33 0 0 0 11.83-5.92c5.71-3.92 8.52-10 6.53-15.07-2.37-6.08-3.7-7.45-13.4-7.43s-16.39 5.53-21.51 13c-2 2.87-3.9 3.27-6.93 2.91q-13.92-1.71-28-2.1A323.55 323.55 0 0 0 119 94.21c-3.16.41-5.25-.25-7.07-3a38 38 0 0 0-12.77-11.55c-5.47-3.21-11.28-4.43-17.1-.86-4.54 2.79-8.24 6.57-8.44 12.22-.18 5.23 3.44 8.53 7.48 11.1a45.39 45.39 0 0 0 15.22 6.38c2.22.45 3.19 1 2.56 3.83A204.34 204.34 0 0 0 95 143a476.69 476.69 0 0 0 4.22 104.19c.35 2.22-.23 3.2-2.46 3.91a36.5 36.5 0 0 0-16.9 10.71c-4.35 5-4.26 12.5.21 18.32 4 5.17 8.62 6.14 15.33 2.78s11.47-8.8 16.07-14.43a5 5 0 0 1 5-2.11c25.94 2.46 51.89 2 77.83-.12 3-.25 4.69.16 6.28 3.16 2.07 3.9 4.79 8.13 10 8.19 18.49.17 36.94 0 55.41.11 2.06 0 3.4-.19 2.63-3.31 5.17 3.8 5.27 3.91 9.32.21 6.31-5.76 10.25-12.42 10.05-21.56-.47-18.85-.24-37.69-.17-56.53Zm-93.55 66.12c-13.52.74-27 1.79-43.2 1.63-10.69 0-24-.21-37.19-2.08-1.86-.26-2.69.59-3.61 1.81-3.78 5-7.88 9.78-13 13.47-.2.14-.39.31-.59.45-5.81 4.13-10.35 4.21-13.31.23-4.21-5.55-3.5-12 1.74-16.39a44.29 44.29 0 0 1 16-8.24c1.93-.57 2.67-1.05 2.3-3.43A480.92 480.92 0 0 1 97.63 171c.22-20.71 1.25-41.35 5.65-61.66.51-2.34-.07-2.87-2.15-3.34a63.73 63.73 0 0 1-16.27-5.87c-6.78-3.7-8.88-7.77-6.61-12.39a12.65 12.65 0 0 1 16.27-6.24c7.13 2.88 12 8.44 16.46 14.37 1.39 1.86 2.62 2.6 5.09 2.28 18.61-2.44 37.3-2.75 56-2.37 10.12.21 20.12 1.48 30.17 2.47 2.22.21 3-.47 3.85-2.14 3.92-7 9.31-12.3 17.53-14a20.42 20.42 0 0 1 9.13.46c3.42.82 4.81 7.11 2.52 10.72-2.12 3.36-5.44 5.28-8.79 7.11-1.82 1-3.78 1.77-5.7 2.6-2.22 1-5.77.86-6.46 2.81s1.14 4.56 2 6.85a80.27 80.27 0 0 1 4.15 22.34c.14 2.19 0 3.42-2.78 3.27s-6.13-1.22-7.78.48-.46 5.17-.49 7.84q-.12 8.49 0 17a4.35 4.35 0 0 1-1.71 3.79c-8.52 7.22-12.36 16.38-12.2 27.62.28 19.09.1 38.18.05 57.27a22.21 22.21 0 0 0 .88 7.29c.78 2.44.14 2.95-2.17 3.08Zm89.81-6.64c0 7.49-4.88 12.3-9.95 16.92-1.08 1-1.47-.08-2-.53-6.57-5.74-10.63-12.38-10.4-21.71.44-17.75 0-35.47.13-53.2.06-8.84 2.36-17.06 8.42-23.78 2-2.22-.11-2.75-1.15-4.21a36.41 36.41 0 0 0-10.89 26.2c-.27 19.32.3 38.66-.11 58-.18 8.14 4.16 14.13 10 20.24h-4.33c-16.5 0-33-.16-49.5.11a10.35 10.35 0 0 1-9.54-4.86c-3.3-4.74-5.51-9.88-5.51-15.74 0-20.08.06-40.15-.05-60.22 0-9.57 4-17 10.92-23.24a7.42 7.42 0 0 1 5.34-1.88q24.4.12 48.77 0c1.33 0 3.4 1 3.31-1.94-.08-2.68-2-1.67-3.18-1.67-16-.07-32-.14-48 0-2.87 0-3.46-.79-3.35-3.47.21-5.42.15-10.84 0-16.27-.06-2.12.3-3 2.76-3q27.36.16 54.68 0c2.14 0 2.67.65 2.64 2.71-.11 7.75-.05 15.53 0 23.27 0 1.19-.11 2.28.94 3.37 7.26 7.58 10.31 16.69 10.2 27.18-.23 19.32-.07 38.54-.15 57.72Z"/><path d="M161.38 192.56c6.16-2 8.93-5.54 9.26-11.64a28.8 28.8 0 0 0-.7-9.16c-.5-1.85.09-2.4 1.65-2.83 1.74-.47 1.74.74 1.95 1.81a32.62 32.62 0 0 1 .2 14.28c-1.41 5.92-5.46 9.61-11.14 11.18-3.21.9-5.18 2.81-7.1 5.28-2.74 3.53-5.43 7-6.34 11.51-.39 2-1.75 1.92-3 1.61-1.75-.44-.66-1.74-.48-2.69a24.78 24.78 0 0 1 5.65-11 45.37 45.37 0 0 0 7.25-11.48c5.91-14.27 0-30.82-14-38.83-4.39 9.89.4 23.34 11.3 31.06.67-5-1-9.21-3.45-13.16a23.44 23.44 0 0 0-4.95-5.92c-1.48-1.2-1.11-2 0-3.24 1.33-1.48 1.88-.1 2.58.56 4.93 4.7 8.5 10.18 9.52 17a16.58 16.58 0 0 1 .2 4c-.2 2.34-.43 5.38-2.36 6.3-1.62.74-3.34-1.91-4.85-3.22-6.65-5.77-11.71-12.57-13-21.62a24.63 24.63 0 0 1 2.58-15.67c.68-1.26 1.21-1.87 2.74-.84 9.73 6.56 16.81 15 19.63 26.63 1.68 6.94-.64 13.34-3.14 20.08Z" class="cls-1"/><path d="M182.57 161.31c-2.95-.94-6.33-.35-8.66-3.3-3-3.78-6.91-4.22-11.15-1.67-.74.45-2.26.88-1.81 1.9.52 1.19 1.48 2.71 3.4 1.62 3-1.86 3.17-1.87 6 0a7.05 7.05 0 0 0-6 .93c-1 2.14-1.31 4.2.48 6.12a5 5 0 0 0 5.83 1c3.73-1.61 7.68-1.42 11.53-2 1.22-.2 2.75.31 2.9-1.89s-.99-2.22-2.52-2.71Zm-10.57 2.1c-1.43.74-2.86 1.91-4.9.59 1.18-1.63 3.7-.48 4.1-2.85.11-.7.62.21.83.45.51.58.86 1.33 0 1.81ZM240.75 214.86c-1.21.33-1.67.74-1.28 2.21a22.44 22.44 0 0 1 .54 7.12c-.25 4.73-2.41 7.48-7.18 9 1.94-5.24 3.74-10.21 2.43-15.59-2.22-9-7.69-15.59-15.24-20.71-1.18-.8-1.59-.33-2.13.65a19.2 19.2 0 0 0-2 12.2c1 7 4.92 12.29 10.11 16.77 1.17 1 2.5 3.09 3.75 2.49 1.48-.74 1.68-3.07 1.85-4.88a13.71 13.71 0 0 0-.17-3.13c-.79-5.33-3.55-9.61-7.39-13.24-.54-.51-1-1.56-2-.42-.84.93-1.12 1.58 0 2.51a18.4 18.4 0 0 1 3.84 4.59c1.91 3.07 3.19 6.31 2.68 10.22-8.47-6-12.18-16.41-8.77-24.08 10.82 6.21 15.44 19.06 10.84 30.12a34.76 34.76 0 0 1-5.63 8.91 19.27 19.27 0 0 0-4.38 8.57c-.14.74-1 1.74.37 2.08 1 .24 2 .32 2.34-1.25.7-3.46 2.79-6.19 4.91-8.92a10.19 10.19 0 0 1 5.51-4.1c4.44-1.24 7.55-4.1 8.64-8.68a25.31 25.31 0 0 0-.15-11.09c-.14-.78-.14-1.73-1.49-1.35Z" class="cls-1"/><path d="M249.27 208.92c-2.27-.74-4.91-.28-6.73-2.56-2.33-3-5.36-3.27-8.64-1.3-.59.36-1.76.68-1.41 1.48s1.17 2.1 2.64 1.26c2.35-1.48 2.46-1.48 4.66 0a5.47 5.47 0 0 0-4.63.74c-.81 1.66-1 3.26.37 4.75a3.84 3.84 0 0 0 4.52.8c2.9-1.25 6-1.11 9-1.58.94-.15 2.12.24 2.22-1.48s-.82-1.73-2-2.11Zm-8.2 1.63c-1.11.59-2.22 1.48-3.8.45.92-1.26 2.88-.37 3.17-2.22.09-.54.49.17.66.35.39.44.66 1.04-.03 1.42Z" class="cls-1"/></g></g></svg>